# xmcd
#
# Track frame offsets: 
#        150
#        5450
#        13922
#        27900
#        41915
#        55897
#        67650
#        81667
#        95790
#        110720
#        123142
#        136177
#        148505
#        162960
#        177217
#        190192
#        204420
#        218237
#        231402
#        245647
#        261290
#        276190
#        289335
#        301330
#        314972
#
# Disc length: 4382 seconds
#
# Revision: 1
# Processed by: cddbd v1.5.2PL0 Copyright (c) Steve Scherf et al.
# Submitted via: ExactAudioCopyFreeDBPlugin 1.0
#
DISCID=80111c19
DTITLE=Various Artist - The Story of Pre-War Blues [CD1]
DYEAR=1994
DGENRE=Blues
TTITLE0=Lemuel Jones - Po' Farmer
TTITLE1=Jimmie Strothers - Tennessee Dog
TTITLE2=Nathan Frazier and Frank Patterson - Texas Traveller
TTITLE3=Sylvester Weaver - Guitar Blues
TTITLE4=Jaybird Coleman - Man Trouble Blues
TTITLE5=Ed Bell - Mamlish Blues
TTITLE6=Cliifford Gibson - Don't Put That Thing On Me
TTITLE7=Willie Walker - South Carolina Rag
TTITLE8=Blind Gary - You Got To Go Down
TTITLE9=Blind Boy Fuller - Careless Love
TTITLE10=Carl Martin - Crow Jane
TTITLE11=Bobbie Leecan's Need More Band - Apaloosa Blues
TTITLE12=Barbecue Bob - Barbecue Blues
TTITLE13=Blind Willie McTell - Atlanta Strut
TTITLE14=Peg Leg Howell - Low Down Rounder Blues
TTITLE15=Charley Lincoln - If It Looks Like Jelly Shales Like Jelly
TTITLE16=Fred McMullen - Wait And  Listen
TTITLE17=Buddy Moss - Red River Blues
TTITLE18=Curley Weaver - No No Blues
TTITLE19=Bummble Bee Slim - No Woman No Nickel (No Nickel One)
TTITLE20=King Solomon Hill - The Gone Dead Train
TTITLE21=A.C.Forehand and Blind Mamie Forehnd - Mother's Prayer
TTITLE22=Rev. F. W. McGee - Fifty Miles Of Elbow Room
TTITLE23=Dranes, Arizona - Just Look
TTITLE24=Birmingham Jubilee Singers - He Took My Slins Away
EXTD=YEAR: 1994
EXTT0=
EXTT1=
EXTT2=
EXTT3=
EXTT4=
EXTT5=
EXTT6=
EXTT7=
EXTT8=
EXTT9=
EXTT10=
EXTT11=
EXTT12=
EXTT13=
EXTT14=
EXTT15=
EXTT16=
EXTT17=
EXTT18=
EXTT19=
EXTT20=
EXTT21=
EXTT22=
EXTT23=
EXTT24=
PLAYORDER=
